<mxfile host="app.diagrams.net" agent="Mozilla/5.0 (Windows NT 10.0; Win64; x64) AppleWebKit/537.36 (KHTML, like Gecko) Chrome/137.0.0.0 Safari/537.36 Edg/137.0.0.0" version="28.2.1">
  <diagram id="KzNRU82ZQBNhwZmSKeUA" name="ページ1">
    <mxGraphModel dx="1017" dy="460" grid="1" gridSize="10" guides="1" tooltips="1" connect="1" arrows="1" fold="1" page="1" pageScale="1" pageWidth="827" pageHeight="1169" math="0" shadow="0">
      <root>
        <mxCell id="0" />
        <mxCell id="1" parent="0" />
        <mxCell id="Y909OFaccKhB8U4lg3PN-2" value="RoboDog" style="html=1;whiteSpace=wrap;" vertex="1" parent="1">
          <mxGeometry x="270" y="20" width="110" height="50" as="geometry" />
        </mxCell>
        <mxCell id="Y909OFaccKhB8U4lg3PN-3" value="名前" style="html=1;whiteSpace=wrap;" vertex="1" parent="1">
          <mxGeometry x="30" y="120" width="110" height="50" as="geometry" />
        </mxCell>
        <mxCell id="Y909OFaccKhB8U4lg3PN-4" value="" style="endArrow=diamondThin;endFill=0;endSize=24;html=1;rounded=0;exitX=0.5;exitY=0;exitDx=0;exitDy=0;entryX=0;entryY=1;entryDx=0;entryDy=0;" edge="1" parent="1" source="Y909OFaccKhB8U4lg3PN-3" target="Y909OFaccKhB8U4lg3PN-2">
          <mxGeometry width="160" relative="1" as="geometry">
            <mxPoint x="110" y="240" as="sourcePoint" />
            <mxPoint x="270" y="240" as="targetPoint" />
          </mxGeometry>
        </mxCell>
        <mxCell id="Y909OFaccKhB8U4lg3PN-7" value="2つの整数" style="html=1;whiteSpace=wrap;" vertex="1" parent="1">
          <mxGeometry x="390" y="120" width="110" height="50" as="geometry" />
        </mxCell>
        <mxCell id="Y909OFaccKhB8U4lg3PN-8" value="" style="endArrow=diamondThin;endFill=0;endSize=24;html=1;rounded=0;exitX=0.5;exitY=0;exitDx=0;exitDy=0;entryX=0.75;entryY=1;entryDx=0;entryDy=0;" edge="1" parent="1" source="Y909OFaccKhB8U4lg3PN-7" target="Y909OFaccKhB8U4lg3PN-2">
          <mxGeometry width="160" relative="1" as="geometry">
            <mxPoint x="290" y="310" as="sourcePoint" />
            <mxPoint x="318" y="140" as="targetPoint" />
          </mxGeometry>
        </mxCell>
        <mxCell id="Y909OFaccKhB8U4lg3PN-9" value="挨拶" style="html=1;whiteSpace=wrap;" vertex="1" parent="1">
          <mxGeometry x="270" y="120" width="110" height="50" as="geometry" />
        </mxCell>
        <mxCell id="Y909OFaccKhB8U4lg3PN-10" value="" style="endArrow=diamondThin;endFill=0;endSize=24;html=1;rounded=0;exitX=0.5;exitY=0;exitDx=0;exitDy=0;entryX=0.5;entryY=1;entryDx=0;entryDy=0;" edge="1" parent="1" source="Y909OFaccKhB8U4lg3PN-9" target="Y909OFaccKhB8U4lg3PN-2">
          <mxGeometry width="160" relative="1" as="geometry">
            <mxPoint x="290" y="310" as="sourcePoint" />
            <mxPoint x="318" y="140" as="targetPoint" />
          </mxGeometry>
        </mxCell>
        <mxCell id="Y909OFaccKhB8U4lg3PN-11" value="時刻" style="html=1;whiteSpace=wrap;" vertex="1" parent="1">
          <mxGeometry x="150" y="120" width="110" height="50" as="geometry" />
        </mxCell>
        <mxCell id="Y909OFaccKhB8U4lg3PN-12" value="" style="endArrow=diamondThin;endFill=0;endSize=24;html=1;rounded=0;exitX=0.5;exitY=0;exitDx=0;exitDy=0;entryX=0.25;entryY=1;entryDx=0;entryDy=0;" edge="1" parent="1" source="Y909OFaccKhB8U4lg3PN-11" target="Y909OFaccKhB8U4lg3PN-2">
          <mxGeometry width="160" relative="1" as="geometry">
            <mxPoint x="290" y="310" as="sourcePoint" />
            <mxPoint x="318" y="140" as="targetPoint" />
          </mxGeometry>
        </mxCell>
        <mxCell id="Y909OFaccKhB8U4lg3PN-13" value="足し算結果" style="html=1;whiteSpace=wrap;" vertex="1" parent="1">
          <mxGeometry x="510" y="120" width="110" height="50" as="geometry" />
        </mxCell>
        <mxCell id="Y909OFaccKhB8U4lg3PN-14" value="" style="endArrow=diamondThin;endFill=0;endSize=24;html=1;rounded=0;exitX=0.5;exitY=0;exitDx=0;exitDy=0;entryX=1;entryY=1;entryDx=0;entryDy=0;" edge="1" parent="1" source="Y909OFaccKhB8U4lg3PN-13" target="Y909OFaccKhB8U4lg3PN-2">
          <mxGeometry width="160" relative="1" as="geometry">
            <mxPoint x="630" y="310" as="sourcePoint" />
            <mxPoint x="658" y="140" as="targetPoint" />
          </mxGeometry>
        </mxCell>
        <mxCell id="Y909OFaccKhB8U4lg3PN-15" value="ドメインモデル＝名詞リストを、線で結んだもの" style="text;html=1;align=center;verticalAlign=middle;resizable=0;points=[];autosize=1;strokeColor=none;fillColor=none;" vertex="1" parent="1">
          <mxGeometry width="290" height="30" as="geometry" />
        </mxCell>
      </root>
    </mxGraphModel>
  </diagram>
</mxfile>
